REM DIRINDEX 1\2,1\3,1\4,1\5
REM DIRNAME "folder01","folder02","folder03","folder04","folder05"
TITLE ""
FILE "P1Q_j_1601-1613.mp3" MP3
  TRACK 01 AUDIO
    TITLE "0:"
    INDEX 01 00:00:00
  TRACK 02 AUDIO
    TITLE "2:cjc173_0001"
    INDEX 01 00:00:20
  TRACK 03 AUDIO
    TITLE "0:"
    INDEX 01 00:01:47
  TRACK 04 AUDIO
    TITLE "2:cjc173_0002"
    INDEX 01 00:02:17
  TRACK 05 AUDIO
    TITLE "0:"
    INDEX 01 00:04:06
  TRACK 06 AUDIO
    TITLE "3:cjc173_0003"
    INDEX 01 00:04:53
  TRACK 07 AUDIO
    TITLE "0:"
    INDEX 01 00:06:13
  TRACK 08 AUDIO
    TITLE "4:cjc173_0004"
    INDEX 01 00:06:31
  TRACK 09 AUDIO
    TITLE "0:"
    INDEX 01 00:11:73
  TRACK 10 AUDIO
    TITLE "5:cjc173_0005"
    INDEX 01 00:12:17
  TRACK 11 AUDIO
    TITLE "0:"
    INDEX 01 00:19:23
  TRACK 12 AUDIO
    TITLE "3:cjc173_0006"
    INDEX 01 00:19:70
  TRACK 13 AUDIO
    TITLE "0:"
    INDEX 01 00:22:26
  TRACK 14 AUDIO
    TITLE "4:cjc173_0007"
    INDEX 01 00:22:47
  TRACK 15 AUDIO
    TITLE "0:"
    INDEX 01 00:27:70
  TRACK 16 AUDIO
    TITLE "5:cjc173_0008"
    INDEX 01 00:28:14
  TRACK 17 AUDIO
    TITLE "0:"
    INDEX 01 00:31:56
  TRACK 18 AUDIO
    TITLE "3:cjc173_0009"
    INDEX 01 00:32:26
  TRACK 19 AUDIO
    TITLE "0:"
    INDEX 01 00:33:51
  TRACK 20 AUDIO
    TITLE "4:cjc173_0010"
    INDEX 01 00:33:72
  TRACK 21 AUDIO
    TITLE "0:"
    INDEX 01 00:40:16
  TRACK 22 AUDIO
    TITLE "5:cjc173_0011"
    INDEX 01 00:40:37
  TRACK 23 AUDIO
    TITLE "0:"
    INDEX 01 00:45:64
  TRACK 24 AUDIO
    TITLE "3:cjc173_0012"
    INDEX 01 00:46:36
  TRACK 25 AUDIO
    TITLE "0:"
    INDEX 01 00:47:63
  TRACK 26 AUDIO
    TITLE "4:cjc173_0013"
    INDEX 01 00:48:07
  TRACK 27 AUDIO
    TITLE "0:"
    INDEX 01 00:52:03
  TRACK 28 AUDIO
    TITLE "5:cjc173_0014"
    INDEX 01 00:52:23
  TRACK 29 AUDIO
    TITLE "0:"
    INDEX 01 00:55:56
  TRACK 30 AUDIO
    TITLE "3:cjc173_0015"
    INDEX 01 00:56:26
  TRACK 31 AUDIO
    TITLE "0:"
    INDEX 01 00:57:69
  TRACK 32 AUDIO
    TITLE "4:cjc173_0016"
    INDEX 01 00:58:14
  TRACK 33 AUDIO
    TITLE "0:"
    INDEX 01 01:03:11
  TRACK 34 AUDIO
    TITLE "5:cjc173_0017"
    INDEX 01 01:03:30
  TRACK 35 AUDIO
    TITLE "0:"
    INDEX 01 01:07:65
  TRACK 36 AUDIO
    TITLE "3:cjc173_0018"
    INDEX 01 01:08:37
  TRACK 37 AUDIO
    TITLE "0:"
    INDEX 01 01:10:01
  TRACK 38 AUDIO
    TITLE "4:cjc173_0019"
    INDEX 01 01:10:21
  TRACK 39 AUDIO
    TITLE "0:"
    INDEX 01 01:15:12
  TRACK 40 AUDIO
    TITLE "5:cjc173_0020"
    INDEX 01 01:15:32
  TRACK 41 AUDIO
    TITLE "0:"
    INDEX 01 01:20:13
  TRACK 42 AUDIO
    TITLE "3:cjc173_0021"
    INDEX 01 01:20:58
  TRACK 43 AUDIO
    TITLE "0:"
    INDEX 01 01:22:08
  TRACK 44 AUDIO
    TITLE "4:cjc173_0022"
    INDEX 01 01:22:30
  TRACK 45 AUDIO
    TITLE "0:"
    INDEX 01 01:27:21
  TRACK 46 AUDIO
    TITLE "5:cjc173_0023"
    INDEX 01 01:27:41
  TRACK 47 AUDIO
    TITLE "0:"
    INDEX 01 01:32:16
  TRACK 48 AUDIO
    TITLE "3:cjc173_0024"
    INDEX 01 01:32:61
  TRACK 49 AUDIO
    TITLE "0:"
    INDEX 01 01:34:04
  TRACK 50 AUDIO
    TITLE "4:cjc173_0025"
    INDEX 01 01:34:25
  TRACK 51 AUDIO
    TITLE "0:"
    INDEX 01 01:35:36
  TRACK 52 AUDIO
    TITLE "5:cjc173_0026"
    INDEX 01 01:35:56
  TRACK 53 AUDIO
    TITLE "0:"
    INDEX 01 01:40:20
  TRACK 54 AUDIO
    TITLE "3:cjc173_0027"
    INDEX 01 01:40:67
  TRACK 55 AUDIO
    TITLE "0:"
    INDEX 01 01:42:31
  TRACK 56 AUDIO
    TITLE "4:cjc173_0028"
    INDEX 01 01:42:48
  TRACK 57 AUDIO
    TITLE "0:"
    INDEX 01 01:46:54
  TRACK 58 AUDIO
    TITLE "5:cjc173_0029"
    INDEX 01 01:46:73
  TRACK 59 AUDIO
    TITLE "0:"
    INDEX 01 01:51:29
  TRACK 60 AUDIO
    TITLE "3:cjc173_0030"
    INDEX 01 01:52:05
  TRACK 61 AUDIO
    TITLE "0:"
    INDEX 01 01:53:44
  TRACK 62 AUDIO
    TITLE "4:cjc173_0031"
    INDEX 01 01:53:64
  TRACK 63 AUDIO
    TITLE "0:"
    INDEX 01 01:58:31
  TRACK 64 AUDIO
    TITLE "5:cjc173_0032"
    INDEX 01 01:58:49
  TRACK 65 AUDIO
    TITLE "0:"
    INDEX 01 02:03:33
  TRACK 66 AUDIO
    TITLE "3:cjc173_0033"
    INDEX 01 02:04:03
  TRACK 67 AUDIO
    TITLE "0:"
    INDEX 01 02:05:71
  TRACK 68 AUDIO
    TITLE "4:cjc173_0034"
    INDEX 01 02:06:17
  TRACK 69 AUDIO
    TITLE "0:"
    INDEX 01 02:08:67
  TRACK 70 AUDIO
    TITLE "5:cjc173_0035"
    INDEX 01 02:09:12
  TRACK 71 AUDIO
    TITLE "0:"
    INDEX 01 02:13:04
  TRACK 72 AUDIO
    TITLE "3:cjc173_0036"
    INDEX 01 02:13:51
  TRACK 73 AUDIO
    TITLE "0:"
    INDEX 01 02:16:02
  TRACK 74 AUDIO
    TITLE "4:cjc173_0037"
    INDEX 01 02:16:22
  TRACK 75 AUDIO
    TITLE "0:"
    INDEX 01 02:18:58
  TRACK 76 AUDIO
    TITLE "5:cjc173_0038"
    INDEX 01 02:19:02
  TRACK 77 AUDIO
    TITLE "0:"
    INDEX 01 02:22:16
  TRACK 78 AUDIO
    TITLE "3:cjc173_0039"
    INDEX 01 02:22:63
  TRACK 79 AUDIO
    TITLE "0:"
    INDEX 01 02:24:19
  TRACK 80 AUDIO
    TITLE "4:cjc173_0040"
    INDEX 01 02:24:39
  TRACK 81 AUDIO
    TITLE "0:"
    INDEX 01 02:27:55
  TRACK 82 AUDIO
    TITLE "5:cjc173_0041"
    INDEX 01 02:27:74
  TRACK 83 AUDIO
    TITLE "0:"
    INDEX 01 02:33:34
